<svg width="242" height="78" viewBox="0 0 242 78" fill="none" xmlns="http://www.w3.org/2000/svg">
<path d="M38.1605 54.0308C44.533 40.1144 45.412 11.405 19.0429 1.98126C36.842 -6.2371 74.3082 18.7467 38.1605 54.0308Z" fill="url(#paint0_linear_53_1111)"/>
<path d="M29.0412 64.7695C33.6558 42.6347 18.6034 15.8977 3.33127 15.8977C5.52281 9.83283 9.15445 1.87169 22.0094 8.77511C32.2274 14.2624 50.4661 37.1558 29.0412 64.7695Z" fill="url(#paint1_linear_53_1111)"/>
<path d="M2.56217 21.7053C8.49522 17.7605 31.4583 39.8953 26.2944 66.0844C14.3184 51.6201 7.87272 46.1819 3.9905 38.2516C1.00386 32.1507 -0.686396 23.8652 2.56217 21.7053Z" fill="url(#paint2_linear_53_1111)"/>
<path d="M90.3328 12.69V15.3492H80.5644V53.039H74.6219V15.3492H64.7721V12.69H90.3328Z" fill="#741ADE"/>
<path d="M102.353 26.9627C104.217 26.9627 105.962 27.3155 107.59 28.021C109.218 28.7084 110.629 29.6581 111.823 30.8701C113.035 32.064 113.985 33.475 114.672 35.1031C115.36 36.7131 115.704 38.4316 115.704 40.2586C115.704 42.1038 115.36 43.8404 114.672 45.4685C113.985 47.0784 113.035 48.4894 111.823 49.7014C110.629 50.8953 109.218 51.8451 107.59 52.5506C105.962 53.238 104.217 53.5817 102.353 53.5817C100.526 53.5817 98.8078 53.238 97.1978 52.5506C95.6059 51.8451 94.213 50.8953 93.0191 49.7014C91.8252 48.4894 90.8755 47.0784 90.17 45.4685C89.4826 43.8404 89.1389 42.1038 89.1389 40.2586C89.1389 38.4316 89.4826 36.7131 90.17 35.1031C90.8755 33.475 91.8252 32.064 93.0191 30.8701C94.213 29.6581 95.6059 28.7084 97.1978 28.021C98.8078 27.3155 100.526 26.9627 102.353 26.9627ZM102.299 29.432C100.888 29.432 99.6942 29.7033 98.7173 30.246C97.7586 30.7887 96.9807 31.5485 96.3838 32.5253C95.7868 33.5022 95.3527 34.6599 95.0813 35.9985C94.828 37.3372 94.7014 38.7934 94.7014 40.3672C94.7014 41.9229 94.8371 43.361 95.1084 44.6816C95.3798 46.0021 95.8139 47.1508 96.4109 48.1276C97.0079 49.0864 97.7857 49.8371 98.7445 50.3798C99.7213 50.9225 100.906 51.1938 102.299 51.1938C103.692 51.1938 104.877 50.9225 105.854 50.3798C106.831 49.8371 107.626 49.0864 108.242 48.1276C108.875 47.1508 109.327 46.0021 109.598 44.6816C109.888 43.361 110.032 41.9229 110.032 40.3672C110.032 38.7934 109.888 37.3372 109.598 35.9985C109.327 34.6599 108.875 33.5022 108.242 32.5253C107.626 31.5485 106.831 30.7887 105.854 30.246C104.877 29.7033 103.692 29.432 102.299 29.432Z" fill="#741ADE"/>
<path d="M136.76 50.9225C135.584 51.429 134.508 51.8541 133.531 52.1978C132.554 52.5234 131.64 52.7857 130.79 52.9847C129.958 53.1837 129.171 53.3194 128.43 53.3917C127.688 53.4822 126.982 53.5274 126.313 53.5274C124.613 53.5274 123.31 53.0932 122.406 52.2249C121.519 51.3385 121.076 49.9095 121.076 47.9377V27.4783H126.584V47.0965C126.584 47.5126 126.621 47.9286 126.693 48.3447C126.783 48.7427 126.928 49.1045 127.127 49.4301C127.344 49.7557 127.634 50.027 127.995 50.2441C128.357 50.4431 128.828 50.5426 129.406 50.5426C130.329 50.5426 131.396 50.4341 132.608 50.217C133.838 49.9818 135.222 49.5115 136.76 48.806V27.4783H142.241V53.039H136.76V50.9225Z" fill="#741ADE"/>
<path d="M155.021 29.4862C155.745 28.9797 156.378 28.5637 156.921 28.2381C157.482 27.9125 157.979 27.6592 158.413 27.4783C158.847 27.2793 159.245 27.1436 159.607 27.0713C159.987 26.9989 160.358 26.9627 160.72 26.9627C162.131 26.9627 163.18 27.4512 163.867 28.428C164.555 29.4048 164.962 30.7887 165.088 32.5796L160.34 33.9906C160.159 32.6881 159.915 31.7655 159.607 31.2229C159.3 30.6802 158.82 30.4088 158.169 30.4088C157.789 30.4088 157.337 30.4902 156.812 30.653C156.306 30.8158 155.709 31.0872 155.021 31.4671V53.039H149.513V27.4783H155.021V29.4862Z" fill="#741ADE"/>
<path d="M175.644 42.4294V53.039H169.701V12.69H179.795C182.635 12.69 185.068 12.9342 187.094 13.4226C189.12 13.893 190.821 14.5261 192.196 15.3221C193.57 16.118 194.674 17.0406 195.506 18.0898C196.338 19.1209 196.971 20.1972 197.405 21.3188C197.84 22.4222 198.12 23.5348 198.247 24.6563C198.391 25.7598 198.464 26.7909 198.464 27.7496C198.464 28.6903 198.382 29.7124 198.219 30.8158C198.075 31.9012 197.767 32.9866 197.297 34.072C196.845 35.1574 196.193 36.2066 195.343 37.2196C194.511 38.2145 193.399 39.1009 192.006 39.8788C190.631 40.6566 188.939 41.2807 186.931 41.751C184.942 42.2033 182.563 42.4294 179.795 42.4294H175.644ZM175.644 15.3492V39.7702H178.981C180.989 39.7702 182.807 39.5441 184.435 39.0919C186.063 38.6396 187.447 37.916 188.587 36.9211C189.744 35.9262 190.631 34.6599 191.246 33.1223C191.861 31.5666 192.168 29.6852 192.168 27.4783C192.168 25.796 192.006 24.3307 191.68 23.0825C191.372 21.8162 190.929 20.7399 190.35 19.8535C189.772 18.949 189.075 18.2074 188.261 17.6285C187.465 17.0496 186.579 16.5883 185.602 16.2446C184.643 15.9009 183.612 15.6658 182.509 15.5391C181.405 15.4125 180.265 15.3492 179.09 15.3492H175.644Z" fill="#741ADE"/>
<path d="M222.261 29.5948C223.418 29.0883 224.486 28.6722 225.462 28.3466C226.439 28.0029 227.353 27.7316 228.203 27.5326C229.053 27.3155 229.84 27.1708 230.564 27.0984C231.305 27.008 232.02 26.9627 232.707 26.9627C234.408 26.9627 235.701 27.4059 236.588 28.2923C237.492 29.1787 237.944 30.6078 237.944 32.5796V53.039H232.436V33.4207C232.436 33.0228 232.391 32.6158 232.3 32.1997C232.228 31.7836 232.083 31.4128 231.866 31.0872C231.649 30.7616 231.351 30.4993 230.971 30.3003C230.609 30.0832 230.148 29.9747 229.587 29.9747C228.664 29.9747 227.597 30.0923 226.385 30.3274C225.173 30.5445 223.798 31.0058 222.261 31.7113V53.039H216.752V27.4783H222.261V29.5948Z" fill="#741ADE"/>
<path d="M216.517 20.8695C216.517 24.0781 213.915 26.6792 210.707 26.6792C207.498 26.6792 204.897 24.0781 204.897 20.8695C204.897 17.6608 207.498 15.0597 210.707 15.0597C213.915 15.0597 216.517 17.6608 216.517 20.8695Z" fill="url(#paint3_linear_53_1111)"/>
<path d="M209.191 25.1636C212.4 25.1636 215.001 22.5625 215.001 19.3539C215.001 18.1368 214.627 17.0071 213.987 16.0737C215.514 17.1204 216.517 18.8779 216.517 20.8695C216.517 24.0781 213.915 26.6792 210.707 26.6792C208.715 26.6792 206.958 25.6771 205.911 24.1497C206.844 24.7894 207.974 25.1636 209.191 25.1636Z" fill="black"/>
<path d="M206.309 25.9648L196.309 53.9597L208.769 27.3011C207.865 27.0046 207.034 26.548 206.309 25.9648Z" fill="url(#paint4_linear_53_1111)"/>
<path d="M192.112 62.6964C191.737 62.6964 191.409 62.7081 191.127 62.7315C190.854 62.755 190.604 62.7862 190.377 62.8253C190.151 62.8643 189.94 62.9112 189.745 62.9659C189.549 63.0128 189.354 63.0635 189.159 63.1182L188.877 62.3565C189.534 62.1143 190.217 61.9425 190.928 61.8409C191.647 61.7315 192.327 61.6768 192.967 61.6768C193.788 61.6768 194.46 61.7198 194.983 61.8057C195.514 61.8917 195.928 62.0362 196.225 62.2393C196.522 62.4346 196.725 62.7003 196.835 63.0362C196.952 63.3643 197.01 63.7784 197.01 64.2784V72.9385H193.167C192.12 72.9385 191.225 72.8292 190.483 72.6104C189.749 72.3917 189.147 72.0987 188.678 71.7315C188.21 71.3565 187.866 70.9307 187.647 70.4542C187.428 69.9698 187.319 69.462 187.319 68.9307C187.319 68.2745 187.42 67.6964 187.624 67.1964C187.835 66.6964 188.135 66.2784 188.526 65.9425C188.917 65.5987 189.393 65.3409 189.956 65.169C190.518 64.9893 191.159 64.8995 191.877 64.8995C192.268 64.8995 192.71 64.9659 193.202 65.0987C193.702 65.2315 194.178 65.4307 194.631 65.6964V64.2315C194.631 64.0518 194.612 63.8721 194.573 63.6925C194.534 63.505 194.432 63.3409 194.268 63.2003C194.104 63.0518 193.85 62.9307 193.506 62.837C193.17 62.7432 192.706 62.6964 192.112 62.6964ZM194.631 71.9776V66.5518C194.256 66.3253 193.866 66.1573 193.46 66.0479C193.053 65.9385 192.604 65.8839 192.112 65.8839C191.721 65.8839 191.374 65.9542 191.069 66.0948C190.772 66.2354 190.522 66.4346 190.319 66.6925C190.116 66.9503 189.96 67.2589 189.85 67.6182C189.749 67.9776 189.698 68.376 189.698 68.8135C189.698 68.9385 189.702 69.1026 189.71 69.3057C189.725 69.5089 189.764 69.7276 189.827 69.962C189.897 70.1964 189.999 70.4346 190.131 70.6768C190.272 70.9112 190.467 71.126 190.717 71.3214C190.967 71.5167 191.284 71.6768 191.667 71.8018C192.049 71.919 192.518 71.9776 193.073 71.9776H194.631Z" fill="#C6C5CA"/>
<path d="M206.409 72.9385C205.479 72.9385 204.659 72.8643 203.948 72.7159C203.245 72.5675 202.631 72.3604 202.108 72.0948C201.592 71.8214 201.159 71.501 200.807 71.1339C200.463 70.7667 200.186 70.3643 199.975 69.9268C199.764 69.4815 199.616 69.0128 199.53 68.5206C199.444 68.0284 199.401 67.5245 199.401 67.0089C199.401 66.2432 199.514 65.5362 199.741 64.8878C199.975 64.2315 200.327 63.669 200.795 63.2003C201.272 62.7237 201.87 62.3526 202.588 62.087C203.315 61.8135 204.174 61.6768 205.167 61.6768C205.557 61.6768 205.999 61.7432 206.491 61.876C206.991 62.0089 207.467 62.2081 207.92 62.4737V61.8995H210.299V75.2706C210.299 75.5675 210.221 75.8565 210.065 76.1378C209.917 76.419 209.674 76.6651 209.338 76.876C209.002 77.0948 208.569 77.2667 208.038 77.3917C207.514 77.5245 206.877 77.5909 206.127 77.5909C205.604 77.5909 205.143 77.5792 204.745 77.5557C204.346 77.5323 203.975 77.4932 203.631 77.4385C203.288 77.3917 202.948 77.3253 202.612 77.2393C202.276 77.1612 201.909 77.0635 201.51 76.9464L201.827 76.0089C202.35 76.1807 202.874 76.3018 203.397 76.3721C203.928 76.4503 204.518 76.4893 205.167 76.4893C206.127 76.4893 206.827 76.3214 207.264 75.9854C207.702 75.6573 207.92 75.1925 207.92 74.5909V72.9385H206.409ZM201.78 66.9854C201.78 67.251 201.795 67.5596 201.827 67.9112C201.866 68.255 201.94 68.6143 202.049 68.9893C202.159 69.3565 202.315 69.7198 202.518 70.0792C202.729 70.4307 203.002 70.751 203.338 71.0401C203.682 71.3214 204.104 71.5479 204.604 71.7198C205.112 71.8917 205.713 71.9776 206.409 71.9776H207.92V63.3409C207.545 63.1143 207.155 62.9464 206.749 62.837C206.342 62.7198 205.893 62.6612 205.401 62.6612C204.823 62.6612 204.307 62.7823 203.854 63.0245C203.409 63.2589 203.03 63.5753 202.717 63.9737C202.413 64.3721 202.178 64.8331 202.014 65.3565C201.858 65.8721 201.78 66.4151 201.78 66.9854Z" fill="#C6C5CA"/>
<path d="M217.963 61.6768C218.76 61.6768 219.432 61.8253 219.979 62.1221C220.534 62.4112 220.983 62.8057 221.327 63.3057C221.678 63.8057 221.928 64.3839 222.077 65.0401C222.233 65.6885 222.311 66.376 222.311 67.1026V67.6534H215.092C215.092 68.0909 215.163 68.5635 215.303 69.0714C215.444 69.5792 215.67 70.0479 215.983 70.4776C216.303 70.9073 216.713 71.2667 217.213 71.5557C217.721 71.837 218.342 71.9776 219.077 71.9776H221.514V72.9385H219.042C217.948 72.9385 217.002 72.8135 216.206 72.5635C215.417 72.3135 214.764 71.9503 214.249 71.4737C213.741 70.9971 213.366 70.4151 213.124 69.7276C212.881 69.0401 212.76 68.255 212.76 67.3721C212.76 66.6378 212.874 65.9268 213.1 65.2393C213.335 64.5518 213.67 63.9464 214.108 63.4229C214.553 62.8917 215.096 62.4698 215.737 62.1573C216.385 61.837 217.127 61.6768 217.963 61.6768ZM217.846 62.7432C217.362 62.7432 216.948 62.8526 216.604 63.0714C216.26 63.2901 215.975 63.5831 215.749 63.9503C215.53 64.3096 215.366 64.7315 215.256 65.2159C215.155 65.6925 215.1 66.1885 215.092 66.7042H220.049V66.2003C220.034 65.7471 219.991 65.3135 219.92 64.8995C219.858 64.4854 219.745 64.1182 219.581 63.7979C219.417 63.4776 219.194 63.2237 218.913 63.0362C218.639 62.8409 218.284 62.7432 217.846 62.7432Z" fill="#C6C5CA"/>
<path d="M227.01 62.8135C227.51 62.5948 227.971 62.4151 228.393 62.2745C228.815 62.126 229.21 62.0089 229.577 61.9229C229.944 61.8292 230.284 61.7667 230.596 61.7354C230.917 61.6964 231.225 61.6768 231.522 61.6768C232.256 61.6768 232.815 61.8682 233.198 62.251C233.588 62.6339 233.784 63.251 233.784 64.1026V72.9385H231.405V64.4659C231.405 64.294 231.385 64.1182 231.346 63.9385C231.315 63.7589 231.252 63.5987 231.159 63.4581C231.065 63.3175 230.936 63.2042 230.772 63.1182C230.616 63.0245 230.417 62.9776 230.174 62.9776C229.776 62.9776 229.315 63.0284 228.792 63.13C228.268 63.2237 227.674 63.4229 227.01 63.7276V72.9385H224.631V61.8995H227.01V62.8135Z" fill="#C6C5CA"/>
<path d="M241.202 62.9542H239.62V72.9385H237.37V62.9542H235.846V61.8995H237.37V58.3018L239.62 57.6221V61.8995H241.202V62.9542Z" fill="#C6C5CA"/>
<defs>
<linearGradient id="paint0_linear_53_1111" x1="0.79834" y1="0.409119" x2="25.7531" y2="121.86" gradientUnits="userSpaceOnUse">
<stop stop-color="#B056FF"/>
<stop offset="0.497163" stop-color="#741ADE"/>
<stop offset="1" stop-color="#0F0C39"/>
</linearGradient>
<linearGradient id="paint1_linear_53_1111" x1="0.79834" y1="0.409119" x2="25.7531" y2="121.86" gradientUnits="userSpaceOnUse">
<stop stop-color="#B056FF"/>
<stop offset="0.497163" stop-color="#741ADE"/>
<stop offset="1" stop-color="#0F0C39"/>
</linearGradient>
<linearGradient id="paint2_linear_53_1111" x1="0.79834" y1="0.409119" x2="25.7531" y2="121.86" gradientUnits="userSpaceOnUse">
<stop stop-color="#B056FF"/>
<stop offset="0.497163" stop-color="#741ADE"/>
<stop offset="1" stop-color="#0F0C39"/>
</linearGradient>
<linearGradient id="paint3_linear_53_1111" x1="0.79834" y1="0.409119" x2="25.7531" y2="121.86" gradientUnits="userSpaceOnUse">
<stop stop-color="#B056FF"/>
<stop offset="0.497163" stop-color="#741ADE"/>
<stop offset="1" stop-color="#0F0C39"/>
</linearGradient>
<linearGradient id="paint4_linear_53_1111" x1="0.79834" y1="0.409119" x2="25.7531" y2="121.86" gradientUnits="userSpaceOnUse">
<stop stop-color="#B056FF"/>
<stop offset="0.497163" stop-color="#741ADE"/>
<stop offset="1" stop-color="#0F0C39"/>
</linearGradient>
</defs>
</svg>
