<svg width="650" height="1024" viewBox="0 0 650 1024" fill="none" xmlns="http://www.w3.org/2000/svg">
<path d="M594.993 603.638H387.836V483.76H594.993V603.638ZM389.1 602.374H593.729V485.024H389.1V602.374Z" fill="#C6C5CA"/>
<path d="M552.257 547.68H415.581V551.687H552.257V547.68Z" fill="#DCDCDC"/>
<path d="M561.674 562.621H415.581V566.994H561.674V562.621Z" fill="#DCDCDC"/>
<path d="M561.674 577.738H415.581V582.112H561.674V577.738Z" fill="#DCDCDC"/>
<path d="M463.348 525.977H415.581V536.38H463.348V525.977Z" fill="#DCDCDC"/>
<path d="M594.362 484.392H388.506V503.478H594.362V484.392Z" fill="#C6C5CA"/>
<path d="M578.523 500.622C578.258 500.369 580.912 497.171 584.439 493.48C587.966 489.789 591.062 486.996 591.315 487.236C591.568 487.476 588.926 490.687 585.4 494.39C581.873 498.094 578.776 500.874 578.523 500.622Z" fill="white"/>
<path d="M591.341 500.622C591.088 500.874 588.004 498.094 584.464 494.39C580.925 490.687 578.283 487.489 578.549 487.236C578.814 486.983 581.886 489.764 585.425 493.48C588.964 497.196 591.581 500.369 591.341 500.622Z" fill="white"/>
<path d="M340.083 247H134.228V365.626H340.083V247Z" fill="#ECECEC"/>
<path d="M297.991 310.301H161.315V314.308H297.991V310.301Z" fill="#DCDCDC"/>
<path d="M307.408 325.242H161.315V329.615H307.408V325.242Z" fill="#DCDCDC"/>
<path d="M307.408 340.359H161.315V344.732H307.408V340.359Z" fill="#DCDCDC"/>
<path d="M209.082 288.598H161.315V299.001H209.082V288.598Z" fill="#DCDCDC"/>
<path d="M340.083 247H134.228V266.086H340.083V247Z" fill="#C6C5CA"/>
<path d="M323.549 263.141C323.284 262.901 325.938 259.691 329.465 256C332.992 252.309 336.088 249.515 336.341 249.768C336.594 250.021 333.952 253.219 330.426 256.91C326.899 260.601 323.802 263.369 323.549 263.141Z" fill="white"/>
<path d="M336.341 263.141C336.088 263.394 333.004 260.613 329.465 256.91C325.926 253.206 323.284 250.021 323.55 249.768C323.815 249.515 326.886 252.296 330.426 256C333.965 259.703 336.607 262.901 336.341 263.141Z" fill="white"/>
<path d="M262.119 467.366H55V347.475H262.119V467.366ZM56.264 466.102H260.855V348.739H56.264V466.102Z" fill="#C6C5CA"/>
<path d="M219.396 411.408H82.7195V415.415H219.396V411.408Z" fill="#DCDCDC"/>
<path d="M228.813 426.349H82.7195V430.722H228.813V426.349Z" fill="#DCDCDC"/>
<path d="M228.813 441.466H82.7195V445.84H228.813V441.466Z" fill="#DCDCDC"/>
<path d="M130.486 389.706H82.7195V400.108H130.486V389.706Z" fill="#DCDCDC"/>
<path d="M261.487 348.107H55.6321V367.194H261.487V348.107Z" fill="#C6C5CA"/>
<path d="M501.154 494.832H258.087V712.443H501.154V494.832Z" fill="#ECECEC"/>
<path d="M270.31 426.286H79.9009V624.114H270.31V426.286Z" fill="#DCDCDC"/>
<path d="M270.31 426.286H79.9009V447.837H270.31V426.286Z" fill="#C6C5CA"/>
<path d="M95.6249 436.84C95.5903 437.622 95.3269 438.376 94.8675 439.009C94.408 439.642 93.7728 440.126 93.0406 440.402C92.3084 440.677 91.5114 440.731 90.7486 440.558C89.9858 440.384 89.2908 439.991 88.7497 439.426C88.2087 438.861 87.8455 438.149 87.7052 437.38C87.5648 436.61 87.6536 435.816 87.9604 435.097C88.2673 434.377 88.7786 433.763 89.4311 433.332C90.0836 432.9 90.8484 432.67 91.6307 432.669C92.7125 432.696 93.7398 433.149 94.4882 433.931C95.2366 434.712 95.6453 435.758 95.6249 436.84Z" fill="white"/>
<path d="M111.842 436.84C111.81 437.625 111.548 438.384 111.088 439.021C110.628 439.658 109.99 440.146 109.255 440.424C108.52 440.702 107.72 440.757 106.953 440.584C106.187 440.41 105.488 440.015 104.945 439.447C104.401 438.879 104.037 438.165 103.896 437.391C103.756 436.618 103.846 435.821 104.155 435.098C104.465 434.376 104.98 433.76 105.636 433.328C106.293 432.896 107.062 432.667 107.848 432.669C108.93 432.695 109.957 433.149 110.705 433.931C111.454 434.712 111.863 435.758 111.842 436.84Z" fill="white"/>
<path d="M128.059 436.84C128.027 437.625 127.765 438.384 127.305 439.021C126.845 439.658 126.207 440.146 125.472 440.424C124.737 440.702 123.937 440.757 123.17 440.584C122.404 440.41 121.705 440.015 121.162 439.447C120.618 438.879 120.254 438.165 120.113 437.391C119.973 436.618 120.063 435.821 120.372 435.098C120.682 434.376 121.197 433.76 121.853 433.328C122.51 432.896 123.279 432.667 124.065 432.669C125.147 432.695 126.174 433.149 126.923 433.931C127.671 434.712 128.08 435.758 128.059 436.84Z" fill="white"/>
<path d="M567.805 290.267H324.738V532.525H567.805V290.267Z" fill="#DCDCDC"/>
<path d="M567.805 290.267H324.738V318.644H567.805V290.267Z" fill="#C6C5CA"/>
<path d="M345.442 304.171C345.397 305.202 345.051 306.198 344.445 307.035C343.84 307.871 343.002 308.511 342.035 308.875C341.069 309.239 340.017 309.312 339.01 309.084C338.003 308.855 337.086 308.336 336.371 307.591C335.656 306.845 335.177 305.906 334.991 304.891C334.805 303.875 334.922 302.827 335.327 301.877C335.732 300.927 336.407 300.117 337.268 299.547C338.129 298.978 339.138 298.673 340.171 298.672C341.598 298.706 342.954 299.303 343.942 300.333C344.93 301.364 345.469 302.744 345.442 304.171Z" fill="white"/>
<path d="M365.249 300.455C365.95 301.216 366.411 302.166 366.575 303.187C366.74 304.209 366.6 305.256 366.174 306.198C365.747 307.141 365.053 307.937 364.177 308.487C363.301 309.038 362.283 309.319 361.249 309.294C360.214 309.27 359.21 308.942 358.361 308.352C357.512 307.761 356.855 306.933 356.473 305.972C356.091 305.01 356 303.958 356.212 302.945C356.424 301.933 356.929 301.005 357.665 300.278C358.695 299.297 360.072 298.765 361.493 298.799C362.915 298.832 364.266 299.427 365.249 300.455Z" fill="white"/>
<path d="M388.14 304.171C388.095 305.202 387.749 306.198 387.143 307.035C386.537 307.871 385.699 308.511 384.733 308.875C383.767 309.239 382.715 309.312 381.708 309.084C380.701 308.855 379.783 308.336 379.069 307.591C378.354 306.845 377.874 305.906 377.689 304.891C377.503 303.875 377.62 302.827 378.025 301.877C378.43 300.927 379.104 300.117 379.966 299.547C380.827 298.978 381.836 298.673 382.869 298.672C384.296 298.706 385.652 299.303 386.64 300.333C387.628 301.364 388.167 302.744 388.14 304.171Z" fill="white"/>
<path d="M515.298 776.717C515.298 776.894 427.526 777.046 319.29 777.046C211.053 777.046 123.243 776.894 123.243 776.717C123.243 776.54 211.003 776.388 319.29 776.388C427.576 776.388 515.298 776.553 515.298 776.717Z" fill="#0F0C39"/>
<path d="M429.776 621.978C410.247 608.34 405.823 583.022 406.594 560.257C406.721 556.465 406.304 552.446 408.111 549.121C409.919 545.797 414.14 543.509 417.54 545.102C420.359 546.429 421.585 549.715 423.165 552.433C425.273 556.053 428.363 559.002 432.076 560.94C434.491 562.204 437.486 562.962 439.875 561.648C443.162 559.84 443.541 555.328 443.516 551.536C443.516 544.482 443.474 537.438 443.389 530.401C443.162 526.623 443.546 522.833 444.527 519.177C445.702 515.587 448.319 512.263 451.896 511.252C455.473 510.241 459.935 512.326 460.744 516.017C460.883 517.58 460.921 519.151 460.858 520.719C460.959 522.299 461.692 524.031 463.171 524.511C464.65 524.992 466.192 523.892 467.329 522.78C471.223 518.988 473.877 514.045 476.342 509.166C478.807 504.287 481.221 499.269 484.76 495.111C488.299 490.952 493.191 487.653 498.664 487.337C504.137 487.021 509.838 490.383 511.203 495.692C512.568 501.001 509.471 506.423 506.147 510.734C501.131 517.132 495.217 522.772 488.59 527.482C487.296 528.188 486.264 529.291 485.645 530.629C484.823 533.157 487.212 535.685 489.702 536.481C492.521 537.417 495.58 537.126 498.55 537.48C501.521 537.834 504.681 539.123 505.806 541.904C507.348 545.772 504.112 549.816 500.939 552.471C494.569 557.78 487.335 561.957 479.552 564.82C476.772 565.831 473.852 566.729 471.602 568.675C469.352 570.622 468.012 574.022 469.364 576.689C470.717 579.356 474.193 580.203 477.113 579.66C480.033 579.116 482.624 577.549 485.405 576.5C490.6 574.54 497.299 574.894 500.573 579.381C501.587 580.927 502.229 582.687 502.448 584.523C502.667 586.358 502.458 588.22 501.837 589.961C500.572 593.426 498.625 596.602 496.111 599.302C487.832 609.193 477.076 616.709 464.94 621.081C452.895 625.252 441.733 626.39 429.763 622.004" fill="#741ADE"/>
<path d="M505.641 490.459C505.641 490.459 505.528 490.585 505.275 490.813L504.15 491.811C503.164 492.696 501.71 493.986 499.878 495.692C494.681 500.517 489.856 505.727 485.443 511.277C482.624 514.778 479.704 518.747 476.595 523.058C473.485 527.368 470.275 532.019 467.089 536.962C463.693 542.173 460.584 547.566 457.774 553.116C456.307 556.01 455.018 559.031 453.691 562.115L449.773 571.532C444.608 583.393 440.109 595.534 436.298 607.897C433.229 618.013 431.113 628.393 429.978 638.903C429.243 645.996 429.125 653.139 429.624 660.252C429.827 662.78 430.016 664.714 430.193 666.029C430.269 666.661 430.32 667.166 430.37 667.533V668.051C430.316 667.887 430.278 667.717 430.256 667.545C430.193 667.179 430.117 666.686 430.016 666.054C429.789 664.79 429.549 662.793 429.321 660.265C428.711 653.138 428.754 645.971 429.447 638.853C430.512 628.298 432.581 617.869 435.628 607.708C439.407 595.31 443.893 583.139 449.065 571.254L453.084 561.875C454.411 558.803 455.713 555.757 457.192 552.85C460.022 547.284 463.157 541.878 466.584 536.658C469.82 531.602 473.081 527.027 476.152 522.754C479.224 518.482 482.194 514.488 485 510.999C489.458 505.463 494.348 500.29 499.625 495.528C501.495 493.847 502.987 492.583 503.998 491.736L505.174 490.788C505.318 490.662 505.475 490.552 505.641 490.459Z" fill="#0F0C39"/>
<path d="M457.356 552.825C457.178 552.304 457.055 551.766 456.99 551.22C456.788 550.17 456.56 548.692 456.295 546.77C455.751 542.978 455.195 537.783 454.601 532.032C454.007 526.281 453.337 521.073 452.781 517.319C452.49 515.448 452.237 513.944 452.06 512.895C451.922 512.358 451.85 511.806 451.845 511.252C452.063 511.758 452.22 512.289 452.313 512.832C452.591 513.868 452.907 515.36 453.261 517.243C453.982 521.035 454.689 526.192 455.284 531.956C455.878 537.72 456.383 542.776 456.775 546.707C456.965 548.477 457.129 549.981 457.255 551.182C457.354 551.723 457.388 552.275 457.356 552.825Z" fill="#0F0C39"/>
<path d="M505.995 543.749C505.38 543.883 504.754 543.959 504.124 543.977C502.86 544.091 501.066 544.242 498.841 544.495C494.392 544.975 488.274 545.86 481.562 547.124C474.85 548.388 468.821 549.816 464.485 550.916C462.324 551.472 460.58 551.978 459.429 552.319C458.815 552.537 458.18 552.69 457.533 552.774C458.118 552.48 458.727 552.239 459.354 552.054C460.542 551.637 462.261 551.055 464.41 550.436C468.72 549.172 474.749 547.668 481.486 546.378C487.193 545.287 492.952 544.486 498.74 543.977C500.977 543.787 502.785 543.711 504.049 543.686C504.698 543.642 505.35 543.663 505.995 543.749Z" fill="#0F0C39"/>
<path d="M436.248 606.823C436.113 606.64 436.003 606.44 435.919 606.229L435.085 604.472C434.364 602.942 433.391 600.68 432.228 597.912C429.877 592.35 426.882 584.564 423.696 575.918C420.511 567.272 417.579 559.486 415.354 553.861C414.267 551.131 413.369 548.894 412.7 547.225L411.992 545.418C411.894 545.209 411.825 544.988 411.789 544.76C411.924 544.943 412.035 545.143 412.118 545.355L412.952 547.112C413.66 548.641 414.646 550.904 415.809 553.672C418.16 559.233 421.156 567.02 424.341 575.665C427.526 584.311 430.459 592.097 432.683 597.722C433.77 600.452 434.668 602.69 435.325 604.358C435.616 605.079 435.856 605.622 436.046 606.166C436.144 606.374 436.212 606.595 436.248 606.823Z" fill="#0F0C39"/>
<path d="M500.813 586.005C500.61 586.121 500.394 586.21 500.168 586.27L498.298 586.902L491.383 589.14C485.544 591.036 477.479 593.741 468.631 596.724C459.783 599.707 451.681 602.361 445.804 604.131C442.871 605.028 440.482 605.711 438.826 606.166L436.918 606.659C436.696 606.729 436.467 606.776 436.235 606.798C436.438 606.681 436.654 606.592 436.88 606.532L438.75 605.9L445.665 603.663C451.504 601.767 459.569 599.062 468.417 596.079C477.265 593.096 485.354 590.441 491.232 588.672C494.177 587.774 496.553 587.092 498.222 586.637L500.13 586.144C500.352 586.073 500.581 586.027 500.813 586.005Z" fill="#0F0C39"/>
<path d="M474.471 279.396L467.961 281.722L465.168 273.215C460.036 257.529 443.68 249.199 428.651 254.496C413.622 259.792 405.621 276.995 410.753 292.681L413.546 301.188L407.011 303.526C404.519 304.493 402.496 306.382 401.361 308.802C400.227 311.222 400.068 313.986 400.919 316.52L419.032 371.871C419.408 373.125 420.032 374.291 420.868 375.299C421.703 376.307 422.733 377.137 423.895 377.74C425.058 378.342 426.33 378.705 427.635 378.806C428.941 378.908 430.253 378.746 431.495 378.33L498.955 354.2C501.479 353.235 503.532 351.329 504.68 348.882C505.828 346.435 505.982 343.638 505.11 341.08L486.985 285.729C486.599 284.478 485.965 283.318 485.121 282.317C484.277 281.317 483.24 280.497 482.072 279.906C480.905 279.315 479.63 278.965 478.324 278.877C477.018 278.79 475.707 278.966 474.471 279.396ZM423.051 288.244C421.668 284.166 421.916 279.71 423.745 275.81C425.573 271.911 428.84 268.87 432.86 267.325C434.845 266.646 436.947 266.374 439.04 266.524C441.133 266.675 443.174 267.246 445.041 268.202C446.909 269.159 448.564 270.482 449.909 272.093C451.254 273.703 452.261 275.568 452.869 277.576L455.65 286.083L425.832 296.751L423.051 288.244ZM460.971 337.363L465.598 351.495C465.683 351.778 465.655 352.083 465.521 352.347C465.387 352.611 465.156 352.813 464.877 352.911L458.393 355.224C458.135 355.295 457.859 355.264 457.624 355.137C457.388 355.01 457.211 354.796 457.129 354.541L452.465 340.473C449.893 340.333 447.425 339.41 445.392 337.829C443.359 336.248 441.858 334.083 441.089 331.625C439.989 328.375 440.19 324.826 441.648 321.721C443.107 318.615 445.71 316.195 448.913 314.965C450.494 314.425 452.168 314.209 453.835 314.329C455.502 314.449 457.128 314.904 458.615 315.666C460.102 316.428 461.421 317.482 462.493 318.764C463.564 320.047 464.367 321.532 464.852 323.131C465.665 325.628 465.733 328.308 465.046 330.843C464.358 333.377 462.947 335.657 460.984 337.401L460.971 337.363Z" fill="#741ADE"/>
<path d="M467.671 281.57C467.671 281.747 455.6 286.285 440.583 291.682C425.567 297.08 413.319 301.415 413.255 301.289C413.192 301.162 425.327 296.587 440.356 291.177C455.385 285.767 467.608 281.406 467.671 281.57Z" fill="#0F0C39"/>
<path d="M482.004 283.896C482.06 284.006 482.107 284.12 482.143 284.237C482.245 284.49 482.358 284.819 482.51 285.223C482.839 286.146 483.294 287.423 483.862 289.015L488.716 303.147C490.739 309.138 493.153 316.242 495.833 324.129C497.097 328.086 498.588 332.206 499.978 336.542C500.723 338.776 501.044 341.129 500.926 343.481C500.819 344.704 500.471 345.894 499.903 346.982C499.295 348.067 498.484 349.024 497.514 349.801C495.561 351.227 493.393 352.332 491.093 353.075L484.583 355.413L472.259 359.825L451.39 367.257L437.297 372.212L433.505 373.476L432.493 373.805C432.385 373.853 432.27 373.882 432.152 373.893C432.152 373.893 432.253 373.893 432.468 373.741L433.454 373.349L437.246 371.921L451.264 366.764L472.095 359.18L484.393 354.731L490.903 352.38C493.138 351.667 495.243 350.595 497.134 349.207C498.037 348.486 498.793 347.598 499.359 346.591C499.894 345.584 500.217 344.478 500.307 343.342C500.423 341.076 500.115 338.808 499.397 336.656C498.032 332.358 496.591 328.199 495.289 324.243C492.66 316.343 490.233 309.214 488.312 303.223C486.39 297.231 484.773 292.416 483.66 289.028C483.129 287.372 482.725 286.083 482.396 285.148L482.093 284.136C482.055 284.06 482.025 283.979 482.004 283.896Z" fill="#0F0C39"/>
<path d="M446.41 266.466C446.41 266.466 445.74 266.137 444.502 265.631C442.736 264.953 440.868 264.577 438.978 264.519C436.175 264.423 433.387 264.95 430.812 266.061C427.682 267.445 425.005 269.684 423.089 272.52C421.161 275.348 420.126 278.691 420.119 282.114C420.145 284.92 420.571 287.707 421.383 290.393C422.04 292.694 422.723 294.526 423.178 295.803C423.446 296.452 423.666 297.119 423.835 297.8C423.476 297.194 423.176 296.555 422.938 295.892C422.419 294.628 421.674 292.833 420.941 290.52C420.041 287.806 419.551 284.973 419.487 282.114C419.453 278.561 420.512 275.084 422.521 272.154C424.503 269.214 427.289 266.906 430.547 265.505C433.202 264.387 436.077 263.894 438.953 264.064C440.884 264.162 442.782 264.612 444.552 265.391C445.025 265.61 445.482 265.863 445.917 266.15C446.097 266.229 446.263 266.335 446.41 266.466Z" fill="#0F0C39"/>
<path d="M446.992 315.926C447.193 315.804 447.405 315.698 447.624 315.61C448.256 315.324 448.912 315.092 449.583 314.915C450.648 314.6 451.747 314.414 452.857 314.359C454.366 314.278 455.875 314.505 457.293 315.029C460.529 316.166 463.499 319.465 464.966 323.877C465.669 326.244 465.669 328.765 464.966 331.132C464.186 333.701 462.789 336.041 460.896 337.945L460.971 337.604C462.653 342.217 464.485 347.223 466.381 352.443L466.495 352.759L466.179 352.873L463.285 353.833L456.965 355.944L456.649 356.045L456.547 355.729C454.816 350.496 452.92 345.617 451.491 340.827L451.77 341.042C449.299 340.836 446.942 339.909 444.995 338.375C443.232 337.017 441.787 335.292 440.76 333.319C439.833 331.569 439.372 329.61 439.42 327.631C439.479 325.608 439.984 323.622 440.9 321.817C441.815 320.012 443.119 318.432 444.716 317.19C445.374 316.656 446.112 316.229 446.903 315.926C446.189 316.35 445.497 316.809 444.83 317.304C443.075 318.789 441.73 320.699 440.924 322.853C440.233 324.476 439.909 326.233 439.977 327.997C440.045 329.76 440.502 331.487 441.316 333.053C442.326 334.951 443.736 336.608 445.45 337.907C447.308 339.365 449.554 340.244 451.909 340.435H452.123L452.187 340.625C453.577 345.327 455.486 350.244 457.243 355.502L456.826 355.3L463.146 353.189L466.027 352.215L465.825 352.645C463.942 347.425 462.122 342.407 460.453 337.793V337.604L460.605 337.452C462.443 335.627 463.813 333.385 464.599 330.917C465.27 328.652 465.27 326.242 464.599 323.978C463.221 319.731 460.377 316.507 457.293 315.37C455.928 314.843 454.471 314.598 453.008 314.649C451.916 314.674 450.831 314.823 449.772 315.092C447.889 315.559 447.004 315.989 446.992 315.926Z" fill="#0F0C39"/>
<path d="M407.921 680.893L281.661 680.312C274.369 680.272 267.392 677.339 262.261 672.159C257.13 666.978 254.265 659.972 254.295 652.681L255.635 336.163C255.65 332.55 256.376 328.976 257.773 325.645C259.17 322.313 261.21 319.29 263.776 316.747C266.342 314.204 269.384 312.192 272.729 310.826C276.073 309.46 279.653 308.766 283.266 308.784L409.514 309.366C416.806 309.403 423.784 312.332 428.918 317.51C434.051 322.689 436.919 329.693 436.892 336.984L435.553 653.49C435.538 657.103 434.811 660.679 433.414 664.012C432.018 667.344 429.978 670.37 427.413 672.914C424.847 675.459 421.805 677.473 418.461 678.842C415.116 680.211 411.535 680.908 407.921 680.893Z" fill="#455A64"/>
<path d="M409.325 320.249H384.854C384.055 320.264 383.267 320.436 382.535 320.755C381.803 321.074 381.142 321.535 380.588 322.11C380.033 322.685 379.598 323.363 379.306 324.107C379.015 324.85 378.872 325.644 378.888 326.442V330.879C378.903 331.677 378.76 332.47 378.468 333.213C378.176 333.955 377.741 334.633 377.187 335.207C376.633 335.781 375.971 336.241 375.239 336.558C374.507 336.876 373.719 337.047 372.921 337.06L325.218 336.845C323.604 336.802 322.074 336.12 320.962 334.95C319.851 333.779 319.249 332.215 319.29 330.601V326.164C319.331 324.553 318.731 322.99 317.622 321.82C316.513 320.65 314.986 319.966 313.374 319.92H304.767L283.342 319.819C278.246 319.789 273.345 321.779 269.714 325.354C266.082 328.929 264.015 333.797 263.965 338.893L262.701 647.84C262.689 650.368 263.175 652.873 264.132 655.213C265.089 657.553 266.497 659.682 268.276 661.478C270.056 663.274 272.171 664.702 274.503 665.68C276.834 666.658 279.335 667.167 281.863 667.179L407.858 667.76C410.388 667.772 412.895 667.285 415.237 666.328C417.579 665.371 419.709 663.961 421.506 662.181C423.303 660.4 424.731 658.283 425.71 655.951C426.689 653.618 427.199 651.115 427.21 648.585L428.474 339.639C428.505 334.528 426.504 329.615 422.913 325.979C419.323 322.343 414.435 320.282 409.325 320.249Z" fill="white"/>
<path d="M392.374 626.541L298.686 626.137C297.713 626.137 296.93 625.075 296.942 623.786L297.043 599.277C297.043 598.013 297.84 596.926 298.813 596.926L392.501 597.356C393.04 597.449 393.522 597.747 393.847 598.187C394.172 598.627 394.315 599.176 394.245 599.719L394.156 624.203C394.156 625.505 393.347 626.554 392.374 626.541Z" fill="#741ADE"/>
<path d="M327.274 614.269C326.739 614.269 326.225 614.184 325.732 614.012C325.246 613.834 324.869 613.608 324.601 613.334L324.9 612.748C325.153 612.995 325.492 613.204 325.917 613.375C326.349 613.54 326.801 613.622 327.274 613.622C327.726 613.622 328.093 613.567 328.373 613.457C328.661 613.341 328.87 613.187 329 612.995C329.137 612.803 329.206 612.591 329.206 612.358C329.206 612.077 329.124 611.851 328.959 611.679C328.802 611.508 328.593 611.374 328.332 611.278C328.072 611.176 327.784 611.087 327.469 611.011C327.154 610.936 326.839 610.857 326.523 610.775C326.208 610.686 325.917 610.569 325.65 610.425C325.389 610.281 325.177 610.093 325.013 609.86C324.855 609.62 324.776 609.309 324.776 608.925C324.776 608.568 324.869 608.243 325.054 607.948C325.246 607.647 325.537 607.407 325.927 607.229C326.318 607.044 326.818 606.951 327.428 606.951C327.832 606.951 328.233 607.01 328.63 607.126C329.028 607.236 329.37 607.39 329.658 607.589L329.401 608.195C329.093 607.989 328.764 607.839 328.415 607.743C328.072 607.647 327.74 607.599 327.418 607.599C326.986 607.599 326.63 607.657 326.349 607.774C326.068 607.89 325.859 608.048 325.722 608.246C325.592 608.438 325.526 608.658 325.526 608.904C325.526 609.185 325.605 609.411 325.763 609.583C325.927 609.754 326.14 609.887 326.4 609.983C326.667 610.079 326.959 610.165 327.274 610.24C327.589 610.316 327.901 610.398 328.209 610.487C328.524 610.576 328.812 610.693 329.072 610.836C329.34 610.974 329.552 611.159 329.71 611.391C329.874 611.624 329.956 611.929 329.956 612.306C329.956 612.656 329.86 612.981 329.668 613.283C329.477 613.577 329.182 613.817 328.785 614.002C328.394 614.18 327.89 614.269 327.274 614.269ZM331.613 614.208V607.013H332.374V614.208H331.613ZM334.715 614.208V607.013H335.342L340.306 613.262H339.977V607.013H340.727V614.208H340.101L335.147 607.959H335.475V614.208H334.715ZM346.231 614.269C345.683 614.269 345.176 614.18 344.71 614.002C344.251 613.817 343.85 613.56 343.507 613.231C343.172 612.902 342.908 612.515 342.716 612.07C342.531 611.624 342.439 611.138 342.439 610.61C342.439 610.083 342.531 609.596 342.716 609.151C342.908 608.706 343.175 608.318 343.518 607.989C343.86 607.661 344.261 607.407 344.72 607.229C345.186 607.044 345.693 606.951 346.241 606.951C346.79 606.951 347.29 607.037 347.742 607.208C348.201 607.38 348.592 607.64 348.914 607.989L348.441 608.473C348.139 608.171 347.807 607.955 347.444 607.825C347.081 607.695 346.69 607.63 346.272 607.63C345.827 607.63 345.416 607.705 345.039 607.856C344.669 608 344.343 608.209 344.062 608.483C343.788 608.75 343.573 609.065 343.415 609.428C343.264 609.785 343.189 610.179 343.189 610.61C343.189 611.035 343.264 611.429 343.415 611.792C343.573 612.155 343.788 612.474 344.062 612.748C344.343 613.015 344.669 613.224 345.039 613.375C345.416 613.519 345.823 613.591 346.262 613.591C346.673 613.591 347.06 613.529 347.423 613.406C347.793 613.283 348.133 613.074 348.441 612.779L348.873 613.355C348.53 613.656 348.129 613.886 347.67 614.043C347.211 614.194 346.731 614.269 346.231 614.269ZM348.143 613.262V610.61H348.873V613.355L348.143 613.262ZM356.613 614.269C355.695 614.269 354.972 614.006 354.445 613.478C353.917 612.95 353.653 612.169 353.653 611.135V607.013H354.414V611.104C354.414 611.953 354.606 612.58 354.99 612.985C355.373 613.389 355.915 613.591 356.613 613.591C357.319 613.591 357.864 613.389 358.248 612.985C358.631 612.58 358.823 611.953 358.823 611.104V607.013H359.563V611.135C359.563 612.169 359.299 612.95 358.772 613.478C358.251 614.006 357.532 614.269 356.613 614.269ZM361.855 614.208V607.013H364.548C365.158 607.013 365.682 607.112 366.12 607.311C366.559 607.503 366.895 607.784 367.128 608.154C367.367 608.517 367.487 608.959 367.487 609.48C367.487 609.987 367.367 610.425 367.128 610.795C366.895 611.159 366.559 611.439 366.12 611.638C365.682 611.837 365.158 611.936 364.548 611.936H362.276L362.616 611.577V614.208H361.855ZM362.616 611.638L362.276 611.268H364.527C365.247 611.268 365.792 611.114 366.162 610.806C366.538 610.49 366.727 610.049 366.727 609.48C366.727 608.904 366.538 608.459 366.162 608.144C365.792 607.828 365.247 607.671 364.527 607.671H362.276L362.616 607.311V611.638Z" fill="#E8E8E3"/>
<path d="M317.374 411.067L284.864 410.92L284.837 416.886L317.347 417.033L317.374 411.067Z" fill="#741ADE"/>
<path opacity="0.1" d="M317.374 411.067L284.864 410.92L284.837 416.886L317.347 417.033L317.374 411.067Z" fill="black"/>
<path d="M412.674 447.698C412.93 447.672 413.18 447.613 413.42 447.521C413.77 447.384 414.074 447.152 414.298 446.85C414.521 446.548 414.655 446.189 414.684 445.815C414.684 443.805 414.684 440.872 414.684 437.106C414.684 435.222 414.684 433.111 414.684 430.786C414.684 430.217 414.684 429.623 414.684 429.029C414.766 428.452 414.641 427.865 414.33 427.373C414.156 427.137 413.93 426.944 413.669 426.81C413.408 426.677 413.119 426.605 412.826 426.602H410.854H392.589L286.868 426.21C286.598 426.205 286.33 426.266 286.088 426.387C285.846 426.508 285.637 426.686 285.478 426.905C285.173 427.4 285.056 427.987 285.149 428.561C285.149 429.825 285.149 431.089 285.149 432.353C285.149 434.881 285.149 437.409 285.149 439.937C285.149 441.201 285.149 442.465 285.149 443.729C285.097 444.318 285.097 444.91 285.149 445.499C285.216 445.751 285.339 445.985 285.51 446.182C285.681 446.379 285.895 446.535 286.135 446.636C286.384 446.735 286.651 446.783 286.919 446.775H293.353L321.426 446.927L368.952 447.218L400.995 447.47L409.704 447.572H411.966C412.485 447.572 412.737 447.572 412.737 447.572H411.966H409.704H400.995H368.952L321.426 447.42L293.353 447.306H286.919C286.565 447.32 286.212 447.26 285.882 447.129C285.55 446.987 285.254 446.771 285.017 446.497C284.78 446.223 284.609 445.899 284.517 445.549C284.444 445.217 284.419 444.877 284.441 444.538V443.603C284.441 442.339 284.441 441.075 284.441 439.811C284.441 437.283 284.441 434.755 284.441 432.227C284.441 430.963 284.441 429.699 284.441 428.435C284.417 428.098 284.417 427.76 284.441 427.423C284.489 427.052 284.633 426.699 284.859 426.4C285.077 426.094 285.365 425.847 285.7 425.677C286.034 425.508 286.405 425.422 286.78 425.426L392.501 426.008L410.766 426.134H412.737C413.085 426.134 413.427 426.218 413.735 426.379C414.043 426.54 414.308 426.772 414.507 427.057C414.863 427.606 415.007 428.267 414.912 428.915C414.912 429.509 414.912 430.103 414.912 430.672C414.912 432.972 414.912 435.083 414.912 436.992C414.912 440.784 414.823 443.691 414.798 445.713C414.767 446.102 414.626 446.474 414.39 446.785C414.155 447.097 413.836 447.334 413.471 447.47C413.231 447.619 412.956 447.697 412.674 447.698Z" fill="#E0E0E0"/>
<path d="M354.088 432.555H294.629V438.129H354.088V432.555Z" fill="#741ADE"/>
<path opacity="0.2" d="M354.088 432.555H294.629V438.129H354.088V432.555Z" fill="white"/>
<path d="M317.152 465.494L284.642 465.346L284.615 471.312L317.125 471.46L317.152 465.494Z" fill="#741ADE"/>
<path opacity="0.1" d="M317.152 465.494L284.642 465.346L284.615 471.312L317.125 471.46L317.152 465.494Z" fill="black"/>
<path d="M411.852 502.126C412.108 502.094 412.361 502.048 412.611 501.987C412.964 501.874 413.289 501.688 413.564 501.439C413.838 501.19 414.056 500.886 414.204 500.546C414.403 500.035 414.48 499.486 414.431 498.94C414.431 498.334 414.431 497.676 414.431 496.943C414.431 495.477 414.431 493.809 414.431 491.887V483.861C414.491 483.28 414.363 482.695 414.064 482.192C413.753 481.677 413.262 481.295 412.687 481.118C412.057 481.006 411.416 480.972 410.778 481.017H392.589L287.235 480.625C286.668 480.626 286.121 480.834 285.696 481.208C285.27 481.582 284.995 482.098 284.922 482.66C284.922 483.861 284.922 485.188 284.922 486.452C284.922 488.98 284.922 491.508 284.922 494.036C284.922 495.3 284.922 496.564 284.922 497.828C284.875 498.419 284.9 499.013 284.997 499.598C285.155 500.11 285.48 500.555 285.92 500.862C286.387 501.158 286.936 501.3 287.488 501.266H289.244H292.897L320.87 501.405L368.232 501.696L400.16 501.949L408.844 502.05H411.107H411.865H411.107H408.844H400.16H368.232L320.844 501.999L292.872 501.898H287.374C286.69 501.939 286.012 501.757 285.44 501.38C284.865 500.982 284.445 500.397 284.252 499.724C284.138 499.082 284.104 498.428 284.151 497.778C284.151 496.514 284.151 495.25 284.151 493.986C284.151 491.458 284.151 488.93 284.151 486.402C284.151 485.138 284.151 483.874 284.151 482.61C284.243 481.887 284.595 481.222 285.142 480.741C285.689 480.259 286.392 479.993 287.121 479.993L392.475 480.575L410.664 480.714C411.342 480.672 412.021 480.719 412.687 480.853C413.343 481.067 413.897 481.518 414.241 482.117C414.568 482.673 414.71 483.32 414.646 483.962C414.646 484.556 414.646 485.138 414.646 485.719C414.646 488.007 414.646 490.105 414.646 492.039C414.646 493.973 414.646 495.604 414.646 497.095C414.646 497.816 414.646 498.485 414.646 499.105C414.692 499.67 414.601 500.238 414.38 500.761C414.216 501.109 413.979 501.419 413.685 501.667C413.39 501.916 413.045 502.098 412.674 502.202C412.398 502.224 412.12 502.199 411.852 502.126Z" fill="#E0E0E0"/>
<path d="M316.907 522.284L284.397 522.136L284.37 528.102L316.88 528.25L316.907 522.284Z" fill="#741ADE"/>
<path opacity="0.1" d="M316.907 522.284L284.397 522.136L284.37 528.102L316.88 528.25L316.907 522.284Z" fill="black"/>
<path d="M411.6 558.892C411.855 558.862 412.109 558.815 412.358 558.753C412.71 558.641 413.033 558.456 413.308 558.21C413.583 557.964 413.802 557.662 413.951 557.325C414.149 556.814 414.227 556.265 414.178 555.719C414.178 555.1 414.178 554.455 414.178 553.71C414.178 552.256 414.178 550.575 414.178 548.654V540.627C414.239 540.046 414.11 539.461 413.812 538.959C413.493 538.453 413.004 538.077 412.434 537.897C411.805 537.78 411.164 537.742 410.525 537.783H392.336L286.982 537.391C286.415 537.393 285.868 537.6 285.443 537.974C285.017 538.348 284.742 538.865 284.669 539.426C284.669 540.69 284.669 541.954 284.669 543.218C284.669 545.746 284.669 548.274 284.669 550.802C284.669 552.066 284.669 553.33 284.669 554.594C284.622 555.181 284.647 555.771 284.745 556.351C284.896 556.867 285.222 557.314 285.667 557.615C286.131 557.918 286.682 558.06 287.235 558.02H292.733L320.706 558.172L368.068 558.462L399.996 558.715L408.68 558.816H410.943C411.448 558.816 411.701 558.816 411.701 558.816C411.701 558.816 411.448 558.816 410.943 558.816H408.68H399.996H368.068L320.706 558.677L292.733 558.563H287.235C286.551 558.61 285.87 558.427 285.301 558.045C284.726 557.647 284.306 557.062 284.113 556.389C283.999 555.747 283.966 555.093 284.012 554.443C284.012 553.179 284.012 551.915 284.012 550.651C284.012 548.123 284.012 545.595 284.012 543.067C284.012 541.803 284.012 540.539 284.012 539.212C284.101 538.49 284.451 537.826 284.996 537.344C285.54 536.862 286.242 536.596 286.969 536.595L392.324 537.177L410.513 537.316C411.19 537.274 411.87 537.321 412.535 537.455C413.192 537.669 413.746 538.119 414.09 538.719C414.417 539.275 414.559 539.922 414.494 540.564C414.494 541.158 414.494 541.752 414.494 542.321C414.494 544.609 414.494 546.707 414.494 548.641C414.494 550.575 414.494 552.205 414.494 553.697C414.494 554.417 414.494 555.087 414.494 555.707C414.543 556.272 414.452 556.841 414.229 557.363C414.065 557.711 413.827 558.021 413.533 558.269C413.239 558.518 412.894 558.7 412.523 558.804C412.226 558.905 411.91 558.935 411.6 558.892Z" fill="#E0E0E0"/>
<path d="M352.818 488.559L293.36 488.289L293.335 493.863L352.793 494.133L352.818 488.559Z" fill="#741ADE"/>
<path opacity="0.2" d="M352.818 488.559L293.36 488.289L293.335 493.863L352.793 494.133L352.818 488.559Z" fill="white"/>
<path d="M298.737 548.578C298.7 549.086 298.514 549.572 298.203 549.976C297.892 550.38 297.469 550.684 296.987 550.85C296.505 551.015 295.985 551.036 295.491 550.909C294.997 550.782 294.552 550.512 294.21 550.134C293.867 549.756 293.644 549.286 293.567 548.782C293.489 548.279 293.561 547.763 293.774 547.3C293.987 546.837 294.331 546.446 294.764 546.177C295.197 545.907 295.699 545.771 296.209 545.784C296.913 545.824 297.574 546.139 298.047 546.662C298.52 547.185 298.768 547.873 298.737 548.578Z" fill="#741ADE"/>
<path d="M306.789 548.616C306.814 548.972 306.765 549.33 306.646 549.666C306.526 550.003 306.339 550.312 306.095 550.573C305.852 550.834 305.557 551.042 305.229 551.185C304.902 551.327 304.548 551.401 304.191 551.401C303.834 551.401 303.481 551.327 303.153 551.185C302.825 551.042 302.531 550.834 302.287 550.573C302.043 550.312 301.856 550.003 301.737 549.666C301.618 549.33 301.569 548.972 301.594 548.616C301.569 548.259 301.618 547.902 301.737 547.565C301.856 547.228 302.043 546.92 302.287 546.658C302.531 546.397 302.825 546.189 303.153 546.046C303.481 545.904 303.834 545.831 304.191 545.831C304.548 545.831 304.902 545.904 305.229 546.046C305.557 546.189 305.852 546.397 306.095 546.658C306.339 546.92 306.526 547.228 306.646 547.565C306.765 547.902 306.814 548.259 306.789 548.616Z" fill="#741ADE"/>
<path d="M314.853 548.654C314.816 549.162 314.63 549.648 314.319 550.052C314.008 550.456 313.585 550.76 313.103 550.925C312.621 551.091 312.101 551.112 311.607 550.985C311.113 550.858 310.668 550.588 310.326 550.21C309.983 549.832 309.76 549.362 309.683 548.858C309.605 548.354 309.677 547.839 309.89 547.376C310.103 546.912 310.447 546.522 310.88 546.252C311.313 545.983 311.815 545.847 312.325 545.86C313.028 545.903 313.686 546.219 314.159 546.741C314.632 547.263 314.881 547.95 314.853 548.654Z" fill="#741ADE"/>
<path d="M322.905 548.692C322.868 549.2 322.682 549.686 322.371 550.09C322.06 550.494 321.637 550.798 321.155 550.963C320.672 551.129 320.152 551.15 319.659 551.023C319.165 550.895 318.719 550.626 318.377 550.248C318.035 549.87 317.812 549.4 317.734 548.896C317.657 548.392 317.729 547.877 317.942 547.414C318.155 546.95 318.499 546.56 318.932 546.29C319.365 546.021 319.867 545.885 320.377 545.898C321.08 545.941 321.738 546.257 322.211 546.779C322.683 547.301 322.933 547.988 322.905 548.692Z" fill="#741ADE"/>
<path d="M330.957 548.717C330.922 549.226 330.738 549.714 330.428 550.119C330.118 550.525 329.696 550.831 329.214 550.998C328.732 551.166 328.211 551.188 327.717 551.062C327.222 550.937 326.775 550.668 326.432 550.29C326.089 549.913 325.864 549.443 325.786 548.938C325.708 548.434 325.779 547.918 325.992 547.454C326.205 546.99 326.549 546.599 326.982 546.329C327.415 546.059 327.918 545.922 328.429 545.936C329.129 545.978 329.786 546.293 330.258 546.812C330.73 547.332 330.981 548.015 330.957 548.717Z" fill="#741ADE"/>
<path d="M339.021 548.755C338.986 549.261 338.804 549.747 338.498 550.151C338.191 550.556 337.772 550.862 337.294 551.032C336.815 551.201 336.298 551.228 335.804 551.107C335.311 550.986 334.864 550.724 334.518 550.353C334.172 549.981 333.942 549.517 333.856 549.016C333.771 548.516 333.833 548.001 334.037 547.536C334.24 547.071 334.574 546.675 335 546.397C335.425 546.12 335.922 545.973 336.43 545.974C337.141 546 337.814 546.308 338.3 546.829C338.785 547.35 339.045 548.043 339.021 548.755Z" fill="#741ADE"/>
<path d="M347.072 548.793C347.097 549.149 347.049 549.507 346.929 549.843C346.81 550.18 346.623 550.489 346.379 550.75C346.136 551.011 345.841 551.219 345.513 551.362C345.186 551.504 344.832 551.578 344.475 551.578C344.118 551.578 343.764 551.504 343.437 551.362C343.109 551.219 342.814 551.011 342.571 550.75C342.327 550.489 342.14 550.18 342.021 549.843C341.901 549.507 341.853 549.149 341.877 548.793C341.853 548.436 341.901 548.079 342.021 547.742C342.14 547.405 342.327 547.097 342.571 546.835C342.814 546.574 343.109 546.366 343.437 546.223C343.764 546.081 344.118 546.008 344.475 546.008C344.832 546.008 345.186 546.081 345.513 546.223C345.841 546.366 346.136 546.574 346.379 546.835C346.623 547.097 346.81 547.405 346.929 547.742C347.049 548.079 347.097 548.436 347.072 548.793Z" fill="#741ADE"/>
<path d="M355.124 548.831C355.09 549.337 354.908 549.823 354.601 550.227C354.294 550.632 353.876 550.938 353.397 551.107C352.919 551.277 352.401 551.304 351.908 551.183C351.415 551.062 350.967 550.8 350.621 550.429C350.275 550.057 350.045 549.593 349.96 549.092C349.874 548.592 349.937 548.077 350.14 547.612C350.343 547.147 350.678 546.751 351.103 546.473C351.528 546.196 352.025 546.048 352.533 546.05C353.245 546.076 353.917 546.384 354.403 546.905C354.889 547.426 355.148 548.119 355.124 548.831Z" fill="#741ADE"/>
<path d="M363.176 548.869C363.141 549.378 362.957 549.865 362.648 550.271C362.338 550.677 361.916 550.982 361.434 551.15C360.952 551.318 360.431 551.34 359.936 551.214C359.442 551.088 358.995 550.82 358.652 550.442C358.308 550.065 358.083 549.594 358.005 549.09C357.927 548.586 357.999 548.069 358.211 547.605C358.424 547.142 358.768 546.75 359.202 546.48C359.635 546.211 360.138 546.074 360.648 546.088C361.349 546.13 362.005 546.445 362.477 546.964C362.95 547.484 363.2 548.167 363.176 548.869Z" fill="#741ADE"/>
<g opacity="0.2">
<path d="M298.737 548.578C298.7 549.086 298.514 549.572 298.203 549.976C297.892 550.38 297.469 550.684 296.987 550.85C296.505 551.015 295.985 551.036 295.491 550.909C294.997 550.782 294.552 550.512 294.21 550.134C293.867 549.756 293.644 549.286 293.567 548.782C293.489 548.279 293.561 547.763 293.774 547.3C293.987 546.837 294.331 546.446 294.764 546.177C295.197 545.907 295.699 545.771 296.209 545.784C296.913 545.824 297.574 546.139 298.047 546.662C298.52 547.185 298.768 547.873 298.737 548.578Z" fill="white"/>
<path d="M306.789 548.616C306.814 548.972 306.765 549.33 306.646 549.666C306.526 550.003 306.339 550.312 306.095 550.573C305.852 550.834 305.557 551.042 305.229 551.185C304.902 551.327 304.548 551.401 304.191 551.401C303.834 551.401 303.481 551.327 303.153 551.185C302.825 551.042 302.531 550.834 302.287 550.573C302.043 550.312 301.856 550.003 301.737 549.666C301.618 549.33 301.569 548.972 301.594 548.616C301.569 548.259 301.618 547.902 301.737 547.565C301.856 547.228 302.043 546.92 302.287 546.658C302.531 546.397 302.825 546.189 303.153 546.046C303.481 545.904 303.834 545.831 304.191 545.831C304.548 545.831 304.902 545.904 305.229 546.046C305.557 546.189 305.852 546.397 306.095 546.658C306.339 546.92 306.526 547.228 306.646 547.565C306.765 547.902 306.814 548.259 306.789 548.616Z" fill="white"/>
<path d="M314.853 548.654C314.816 549.162 314.63 549.648 314.319 550.052C314.008 550.456 313.585 550.76 313.103 550.925C312.621 551.091 312.101 551.112 311.607 550.985C311.113 550.858 310.668 550.588 310.326 550.21C309.983 549.832 309.76 549.362 309.683 548.858C309.605 548.354 309.677 547.839 309.89 547.376C310.103 546.912 310.447 546.522 310.88 546.252C311.313 545.983 311.815 545.847 312.325 545.86C313.028 545.903 313.686 546.219 314.159 546.741C314.632 547.263 314.881 547.95 314.853 548.654Z" fill="white"/>
<path d="M322.905 548.692C322.868 549.2 322.682 549.686 322.371 550.09C322.06 550.494 321.637 550.798 321.155 550.963C320.672 551.129 320.152 551.15 319.659 551.023C319.165 550.895 318.719 550.626 318.377 550.248C318.035 549.87 317.812 549.4 317.734 548.896C317.657 548.392 317.729 547.877 317.942 547.414C318.155 546.95 318.499 546.56 318.932 546.29C319.365 546.021 319.867 545.885 320.377 545.898C321.08 545.941 321.738 546.257 322.211 546.779C322.683 547.301 322.933 547.988 322.905 548.692Z" fill="white"/>
<path d="M330.956 548.717C330.922 549.226 330.738 549.714 330.428 550.119C330.118 550.525 329.696 550.831 329.214 550.998C328.732 551.166 328.211 551.188 327.717 551.062C327.222 550.937 326.775 550.668 326.432 550.29C326.089 549.913 325.864 549.443 325.786 548.938C325.707 548.434 325.779 547.918 325.992 547.454C326.205 546.99 326.549 546.599 326.982 546.329C327.415 546.059 327.918 545.922 328.428 545.936C329.129 545.978 329.786 546.293 330.258 546.812C330.73 547.332 330.981 548.015 330.956 548.717Z" fill="white"/>
<path d="M339.021 548.755C338.986 549.261 338.804 549.747 338.498 550.151C338.191 550.556 337.772 550.862 337.294 551.032C336.815 551.201 336.298 551.228 335.804 551.107C335.311 550.986 334.864 550.724 334.518 550.353C334.172 549.981 333.942 549.517 333.856 549.016C333.771 548.516 333.833 548.001 334.037 547.536C334.24 547.071 334.574 546.675 335 546.397C335.425 546.12 335.922 545.973 336.43 545.974C337.141 546 337.814 546.308 338.3 546.829C338.785 547.35 339.045 548.043 339.021 548.755Z" fill="white"/>
<path d="M347.072 548.793C347.097 549.149 347.049 549.507 346.929 549.843C346.81 550.18 346.623 550.489 346.379 550.75C346.136 551.011 345.841 551.219 345.513 551.362C345.186 551.504 344.832 551.578 344.475 551.578C344.118 551.578 343.764 551.504 343.437 551.362C343.109 551.219 342.814 551.011 342.571 550.75C342.327 550.489 342.14 550.18 342.021 549.843C341.901 549.507 341.853 549.149 341.877 548.793C341.853 548.436 341.901 548.079 342.021 547.742C342.14 547.405 342.327 547.097 342.571 546.835C342.814 546.574 343.109 546.366 343.437 546.223C343.764 546.081 344.118 546.008 344.475 546.008C344.832 546.008 345.186 546.081 345.513 546.223C345.841 546.366 346.136 546.574 346.379 546.835C346.623 547.097 346.81 547.405 346.929 547.742C347.049 548.079 347.097 548.436 347.072 548.793Z" fill="white"/>
<path d="M355.124 548.831C355.09 549.337 354.908 549.823 354.601 550.227C354.294 550.632 353.876 550.938 353.397 551.107C352.919 551.277 352.401 551.304 351.908 551.183C351.415 551.062 350.967 550.8 350.621 550.429C350.275 550.057 350.045 549.593 349.96 549.092C349.874 548.592 349.937 548.077 350.14 547.612C350.343 547.147 350.678 546.751 351.103 546.473C351.528 546.196 352.025 546.049 352.533 546.05C353.245 546.076 353.917 546.384 354.403 546.905C354.889 547.426 355.148 548.119 355.124 548.831Z" fill="white"/>
<path d="M363.176 548.869C363.141 549.378 362.957 549.865 362.647 550.271C362.338 550.677 361.915 550.982 361.433 551.15C360.951 551.318 360.431 551.34 359.936 551.214C359.441 551.088 358.995 550.82 358.651 550.442C358.308 550.065 358.083 549.594 358.005 549.09C357.927 548.586 357.998 548.069 358.211 547.605C358.424 547.142 358.768 546.75 359.201 546.48C359.635 546.211 360.138 546.074 360.648 546.088C361.348 546.13 362.005 546.445 362.477 546.964C362.949 547.484 363.2 548.167 363.176 548.869Z" fill="white"/>
</g>
<path d="M351.737 366.397C352.615 366.011 353.36 365.374 353.879 364.568C354.398 363.761 354.669 362.819 354.657 361.86C354.689 361.236 354.595 360.612 354.379 360.026C354.162 359.44 353.829 358.905 353.399 358.452C352.97 357.999 352.452 357.638 351.878 357.391C351.304 357.145 350.686 357.018 350.062 357.018C349.437 357.018 348.819 357.145 348.246 357.391C347.672 357.638 347.154 357.999 346.724 358.452C346.295 358.905 345.961 359.44 345.745 360.026C345.529 360.612 345.435 361.236 345.467 361.86C345.448 362.829 345.716 363.782 346.238 364.598C346.76 365.415 347.512 366.059 348.4 366.448C341.321 367.51 341.637 375.195 341.637 375.195L358.373 375.271C358.373 375.271 358.765 367.447 351.737 366.397Z" fill="#741ADE"/>
<path opacity="0.1" d="M351.737 366.397C352.615 366.011 353.36 365.374 353.879 364.568C354.398 363.761 354.669 362.819 354.657 361.86C354.689 361.236 354.595 360.612 354.379 360.026C354.162 359.44 353.829 358.905 353.399 358.452C352.97 357.999 352.452 357.638 351.878 357.391C351.304 357.145 350.686 357.018 350.062 357.018C349.437 357.018 348.819 357.145 348.246 357.391C347.672 357.638 347.154 357.999 346.724 358.452C346.295 358.905 345.961 359.44 345.745 360.026C345.529 360.612 345.435 361.236 345.467 361.86C345.448 362.829 345.716 363.782 346.238 364.598C346.76 365.415 347.512 366.059 348.4 366.448C341.321 367.51 341.637 375.195 341.637 375.195L358.373 375.271C358.373 375.271 358.765 367.447 351.737 366.397Z" fill="black"/>
<path d="M378.931 380.227L319.283 379.957L319.251 387.086L378.899 387.356L378.931 380.227Z" fill="#741ADE"/>
<path opacity="0.2" d="M378.931 380.227L319.283 379.957L319.251 387.086L378.899 387.356L378.931 380.227Z" fill="white"/>
<path d="M159.646 417.172H159.052L157.333 417.299C156.403 417.355 155.478 417.477 154.565 417.665C153.974 417.748 153.387 417.862 152.808 418.007L150.849 418.55C147.514 419.573 144.368 421.131 141.533 423.164C137.788 425.882 134.66 429.363 132.357 433.377C131.003 435.691 129.925 438.155 129.146 440.721C128.328 443.509 127.856 446.387 127.743 449.291C127.668 450.816 127.693 452.344 127.819 453.866C127.819 454.637 128.034 455.408 128.135 456.192C128.22 456.982 128.368 457.764 128.577 458.53C129.714 463.603 132.02 468.339 135.312 472.362C138.604 476.384 142.79 479.582 147.537 481.7C150.973 483.182 154.655 484.009 158.395 484.139C162.258 484.352 166.124 483.797 169.771 482.509L170.883 482.091H171.035L171.161 482.167L187.101 490.257L186.633 490.661C184.926 485.378 183.283 480.259 181.691 475.342V475.152L181.83 475.013C185.696 471.119 188.567 466.349 190.197 461.109C191.674 456.318 192.105 451.266 191.461 446.295C190.888 441.877 189.468 437.61 187.277 433.731C185.389 430.398 182.954 427.407 180.073 424.883C177.696 422.885 175.065 421.21 172.249 419.903C170.118 418.984 167.898 418.285 165.625 417.817L163.097 417.4L161.264 417.261L160.152 417.185H159.773C159.899 417.171 160.026 417.171 160.152 417.185H161.277L163.11 417.261L165.638 417.627C167.939 418.061 170.189 418.734 172.35 419.637C175.214 420.929 177.893 422.6 180.313 424.605C183.247 427.118 185.734 430.109 187.669 433.453C189.922 437.374 191.386 441.698 191.98 446.181C192.677 451.23 192.276 456.369 190.804 461.248C189.163 466.597 186.248 471.468 182.31 475.443L182.386 475.114C183.978 480.031 185.634 485.15 187.353 490.421L187.593 491.192L186.873 490.826L170.934 482.749H171.212L170.074 483.166C166.357 484.474 162.419 485.041 158.484 484.834C154.663 484.689 150.904 483.831 147.398 482.306C140.711 479.442 135.148 474.465 131.56 468.137C129.909 465.214 128.704 462.062 127.983 458.783C127.786 457.997 127.638 457.199 127.541 456.394C127.44 455.598 127.275 454.814 127.237 454.031C126.895 449.533 127.371 445.011 128.641 440.683C129.439 438.082 130.546 435.587 131.94 433.25C134.298 429.2 137.491 425.697 141.306 422.974C144.187 420.937 147.386 419.39 150.773 418.398L152.758 417.893C153.342 417.757 153.932 417.652 154.527 417.577C155.449 417.406 156.383 417.305 157.321 417.273L159.052 417.21C159.249 417.184 159.448 417.171 159.646 417.172Z" fill="#741ADE"/>
<path d="M166.851 446.649H164.513L159.457 439.545V434.881C159.457 434.881 155.842 434.653 156.272 440.759C156.701 446.864 156.272 445.309 156.272 445.309C156.272 445.309 148.599 445.309 147.967 446.004C147.335 446.699 147.297 454.106 147.209 458.24C147.16 459.236 147.446 460.22 148.021 461.035C148.596 461.851 149.427 462.45 150.381 462.74C150.649 462.814 150.925 462.852 151.203 462.853C153.124 462.853 162.895 461.299 162.895 461.299H166.927L166.851 446.649Z" fill="#741ADE"/>
<path d="M173.538 445.397L172.097 461.374H168.103V445.726L173.538 445.397Z" fill="#741ADE"/>
<path d="M221.178 770.663V759.855L201.801 759.716L201.636 776.06L202.837 776.148C208.184 776.49 230.039 776.995 233.628 775.883C237.623 774.644 221.178 770.663 221.178 770.663Z" fill="#741ADE"/>
<path d="M234.083 774.872C234.083 775.049 226.828 775.2 217.892 775.2C208.955 775.2 201.7 775.049 201.7 774.872C201.7 774.695 208.955 774.543 217.892 774.543C226.828 774.543 234.083 774.695 234.083 774.872Z" fill="#0F0C39"/>
<path d="M221.519 772.875C221.355 772.786 221.519 772.217 221.911 771.611C222.303 771.004 222.834 770.751 222.96 770.877C223.086 771.004 222.821 771.484 222.442 772.002C222.063 772.521 221.683 772.963 221.519 772.875Z" fill="#0F0C39"/>
<path d="M222.758 773.582C222.581 773.582 222.67 772.875 223.049 772.205C223.428 771.535 223.934 771.13 224.073 771.231C224.212 771.332 223.984 771.901 223.63 772.495C223.276 773.089 222.922 773.646 222.758 773.582Z" fill="#0F0C39"/>
<path d="M207.539 774.821C207.463 774.821 207.173 774.594 206.756 774.113C206.246 773.496 205.679 772.929 205.062 772.42C204.455 771.934 203.731 771.616 202.964 771.497C202.37 771.421 201.99 771.497 201.952 771.421C201.914 771.345 202.281 771.08 202.976 771.029C203.894 771.01 204.789 771.314 205.504 771.889C206.175 772.435 206.74 773.099 207.173 773.848C207.463 774.404 207.615 774.771 207.539 774.821Z" fill="#0F0C39"/>
<path d="M221.582 770.84C221.671 770.991 221.342 771.37 220.786 771.573C220.23 771.775 219.737 771.699 219.712 771.573C219.686 771.446 220.078 771.181 220.558 771.004C221.039 770.827 221.481 770.688 221.582 770.84Z" fill="#0F0C39"/>
<path d="M221.279 769.79C221.279 769.98 220.774 770.132 220.116 770.144C219.459 770.157 218.941 770.005 218.953 769.828C218.966 769.651 219.484 769.487 220.116 769.474C220.748 769.462 221.254 769.613 221.279 769.79Z" fill="#0F0C39"/>
<path d="M268.894 770.663V759.855L249.517 759.716L249.353 775.896L250.553 775.984C255.9 776.325 277.767 776.995 281.344 775.883C285.339 774.644 268.894 770.663 268.894 770.663Z" fill="#741ADE"/>
<path d="M281.799 774.897C281.799 775.074 274.557 775.226 265.607 775.226C256.658 775.226 249.428 775.074 249.428 774.897C249.428 774.72 256.671 774.568 265.607 774.568C274.544 774.568 281.799 774.72 281.799 774.897Z" fill="#0F0C39"/>
<path d="M269.235 772.875C269.084 772.786 269.235 772.217 269.627 771.611C270.019 771.004 270.55 770.751 270.676 770.877C270.803 771.004 270.537 771.484 270.158 772.002C269.779 772.521 269.4 772.963 269.235 772.875Z" fill="#0F0C39"/>
<path d="M270.474 773.582C270.31 773.582 270.386 772.875 270.777 772.205C271.169 771.535 271.662 771.13 271.801 771.231C271.94 771.332 271.7 771.901 271.346 772.495C270.992 773.089 270.651 773.646 270.474 773.582Z" fill="#0F0C39"/>
<path d="M255.255 774.821C255.179 774.821 254.901 774.594 254.472 774.113C253.962 773.496 253.395 772.929 252.778 772.42C252.171 771.934 251.447 771.616 250.68 771.497C250.098 771.421 249.706 771.497 249.668 771.421C249.631 771.345 249.997 771.08 250.692 771.029C251.61 771.01 252.505 771.314 253.22 771.889C253.894 772.432 254.46 773.096 254.889 773.848C255.179 774.404 255.331 774.771 255.255 774.821Z" fill="#0F0C39"/>
<path d="M269.298 770.84C269.387 770.991 269.058 771.37 268.502 771.573C267.946 771.775 267.453 771.699 267.428 771.573C267.402 771.446 267.794 771.181 268.275 771.004C268.755 770.827 269.197 770.688 269.298 770.84Z" fill="#0F0C39"/>
<path d="M269.02 769.79C269.02 769.98 268.515 770.132 267.858 770.144C267.2 770.157 266.695 770.005 266.707 769.828C266.72 769.651 267.226 769.487 267.858 769.474C268.49 769.462 269.02 769.613 269.02 769.79Z" fill="#0F0C39"/>
<path d="M340.285 449.733C339.779 449.215 338.528 449.468 338.528 449.468C338.653 448.74 338.653 447.996 338.528 447.268C338.3 446.56 336.708 446.699 336.708 446.699C336.634 446.103 336.634 445.501 336.708 444.904C336.72 444.772 336.692 444.64 336.626 444.524C336.561 444.409 336.461 444.316 336.341 444.26C335.587 443.953 334.778 443.806 333.965 443.83C332.991 443.135 336.935 437.611 338.401 435.842C339.868 434.072 339.602 432.694 338.3 432.694C337.403 432.694 332.802 438.003 331.386 439.785C329.97 441.568 326.216 446.522 326.09 442.566C325.964 438.61 324.371 435.627 323.372 435.121C322.374 434.616 321.312 435.804 321.856 436.903C322.333 438.153 322.631 439.463 322.74 440.796C322.878 441.858 322.831 442.936 322.601 443.982C322.182 445.928 321.612 447.838 320.895 449.695H320.794C320.794 449.695 293.213 476.151 291.216 478.034C289.434 479.728 253.587 476.024 246.395 475.266C243.951 474.908 241.483 474.739 239.013 474.76C235.891 474.899 235.335 475.342 232.225 475.38C224.373 475.467 216.538 476.155 208.791 477.44C205.283 478.036 202.006 479.585 199.318 481.916C196.629 484.248 194.633 487.273 193.547 490.661C186.304 513.287 169.897 566.843 167.003 596.926C164.816 600.892 162.841 604.972 161.087 609.149C159.052 614.685 159.545 614.875 160.228 615.001C162.073 615.342 164.172 605.407 164.955 607.809C165.739 610.21 160.974 619.652 162.908 619.931C165.436 620.284 167.445 609.819 167.685 608.984C167.926 608.15 169.177 608.416 168.949 609.199C168.583 610.312 165.031 622.105 167.509 622.484C168.874 622.686 169.025 620.196 169.025 620.196C169.025 620.196 171.553 608.908 172.704 609.136C173.854 609.363 172.628 616.025 172.046 618.249C171.465 620.474 172.274 621.599 173.462 621.056C174.271 620.676 176.205 613.914 176.736 611.715C177.267 609.515 178.594 603.423 180.376 606.949C182.158 610.476 184.863 612.523 185.976 612.574C186.226 612.545 186.462 612.442 186.654 612.278C186.845 612.113 186.983 611.895 187.05 611.652C187.117 611.409 187.109 611.151 187.028 610.912C186.947 610.673 186.796 610.464 186.595 610.312C185.638 609.377 184.817 608.314 184.155 607.152C183.566 606.246 183.138 605.246 182.891 604.194C182.382 602.097 182.086 599.954 182.007 597.798L181.804 596.534C184.636 582.516 192.788 541.373 204.556 515.094L209.385 525.029L211.483 532.386L198.616 564.15L253.498 563.43L245.308 531.906L255.255 499.042C266.012 499.282 293.63 499.686 298.231 497.601C304.021 495.073 333.965 457.254 333.965 457.254C335.917 455.737 337.786 454.117 339.564 452.4C339.564 452.4 341.384 450.871 340.285 449.733Z" fill="#FFBE9D"/>
<path d="M196.201 540.678C197.794 535.243 205.972 508.37 205.972 508.37C205.972 508.37 209.992 530.275 208.93 532.917C207.953 535.178 206.799 537.359 205.479 539.439C196.201 553.558 197.415 560.624 197.415 560.624L253.473 558.917C253.6 551.08 248.961 532.854 248 529.946C247.039 527.039 250.237 517.521 250.237 517.521C250.237 517.521 256.557 511.088 256.33 507.776C256.21 504.801 255.842 501.842 255.23 498.928L289.358 500.192L288.284 477.061L239.266 472.156C237.559 476.972 222.126 474.608 222.126 474.608C205.466 475.165 204.43 478.224 197.503 483.608C190.577 488.993 179.112 535.205 179.112 535.205L196.201 540.678Z" fill="#741ADE"/>
<path d="M229.343 535.205C228.372 535.378 227.383 535.429 226.398 535.356C224.566 535.356 222.05 535.23 219.282 534.952C216.514 534.674 214.011 534.282 212.229 533.928C211.246 533.801 210.283 533.555 209.36 533.195C210.348 533.195 211.334 533.288 212.305 533.473C214.1 533.7 216.59 534.016 219.345 534.295C222.101 534.573 224.603 534.762 226.411 534.889C227.396 534.901 228.378 535.007 229.343 535.205Z" fill="#0F0C39"/>
<path d="M233.186 530.439C232.214 530.915 231.186 531.268 230.127 531.488C225.084 532.814 219.881 533.43 214.668 533.321C213.59 533.356 212.511 533.254 211.458 533.018C212.522 532.883 213.596 532.829 214.668 532.854C216.653 532.79 219.383 532.651 222.391 532.297C225.4 531.944 228.079 531.438 229.975 531.033C231.028 530.752 232.102 530.554 233.186 530.439Z" fill="#0F0C39"/>
<path d="M252.045 509.179C252.019 510.143 251.888 511.101 251.653 512.035C251.324 513.792 250.819 516.194 250.174 518.823C249.529 521.452 248.91 523.879 248.354 525.522C248.13 526.463 247.799 527.375 247.368 528.24C247.438 527.279 247.616 526.33 247.899 525.409C248.379 523.437 248.923 521.162 249.529 518.671C250.136 516.181 250.718 513.906 251.198 511.934C251.369 510.985 251.653 510.06 252.045 509.179Z" fill="#0F0C39"/>
<path d="M196.795 537.455C193.871 537.003 190.985 536.331 188.162 535.445C185.278 534.77 182.447 533.883 179.693 532.79C182.616 533.249 185.502 533.921 188.326 534.8C191.212 535.472 194.043 536.359 196.795 537.455Z" fill="#0F0C39"/>
<path d="M255.837 498.65C255.36 498.732 254.872 498.732 254.396 498.65C253.075 498.514 251.779 498.204 250.54 497.727C248.473 496.95 246.59 495.749 245.014 494.201C243.438 492.654 242.203 490.793 241.389 488.74C240.489 486.481 240.105 484.05 240.264 481.624C240.321 479.622 240.919 477.674 241.996 475.986C242.753 474.849 243.885 474.013 245.194 473.623C245.544 473.526 245.905 473.479 246.268 473.484C246.521 473.484 246.647 473.484 246.647 473.484C246.647 473.484 246.116 473.484 245.27 473.825C244.069 474.269 243.05 475.1 242.375 476.188C240.656 478.893 240.176 483.836 242.008 488.449C242.862 490.625 244.197 492.578 245.914 494.163C247.321 495.459 248.942 496.502 250.705 497.247C252.359 497.9 254.08 498.371 255.837 498.65Z" fill="#0F0C39"/>
<path d="M285.301 499.737C284.984 495.861 284.883 491.97 284.997 488.083C284.898 484.199 285.016 480.312 285.351 476.441C285.668 480.313 285.769 484.2 285.655 488.083C285.761 491.971 285.643 495.862 285.301 499.737Z" fill="#0F0C39"/>
<path d="M238.937 473.572C239.076 470.753 239.367 467.568 239.367 467.568C239.367 467.568 246.344 466.797 246.761 459.592C247.178 452.387 246.761 435.766 246.761 435.766L234.121 429.294L220.091 440.329L222.252 476.353L235.12 477.174C236.103 477.202 237.058 476.838 237.773 476.162C238.489 475.487 238.907 474.555 238.937 473.572Z" fill="#FFBE9D"/>
<path d="M240.189 453.892C240.189 453.892 240.189 454.031 240.075 454.195C239.981 454.314 239.859 454.409 239.72 454.47C239.582 454.532 239.43 454.559 239.278 454.549C238.469 454.549 237.686 453.613 237.408 452.526C237.276 451.999 237.276 451.448 237.408 450.921C237.434 450.691 237.517 450.471 237.649 450.281C237.781 450.092 237.959 449.938 238.166 449.834C238.336 449.764 238.527 449.764 238.697 449.834C238.823 449.897 238.925 449.999 238.988 450.125C239.076 450.34 238.988 450.479 238.988 450.466C238.988 450.453 238.988 450.34 238.861 450.213C238.795 450.123 238.698 450.06 238.588 450.036C238.479 450.013 238.364 450.031 238.267 450.087C238.112 450.181 237.983 450.312 237.893 450.469C237.802 450.626 237.753 450.803 237.749 450.984C237.643 451.454 237.643 451.942 237.749 452.413C238.002 453.399 238.684 454.195 239.291 454.271C239.41 454.287 239.531 454.278 239.646 454.246C239.761 454.213 239.868 454.157 239.961 454.081C240.113 453.98 240.163 453.879 240.189 453.892Z" fill="#EB996E"/>
<path d="M251.097 431.873C250.124 428.561 246.597 426.918 243.386 426.008C238.495 424.617 233.211 424.011 228.433 425.768C223.655 427.524 217.917 430.609 217.917 435.88C215.098 435.652 213.48 438.117 212.368 441.176C211.657 443.039 211.231 444.999 211.104 446.99C210.75 453.892 208.816 463.422 204.342 468.478C201.814 471.297 198.312 473.243 196.871 476.757C195.607 479.804 196.265 483.419 195.089 486.503C194.04 489.22 191.727 491.154 190.033 493.518C188.307 496.199 187.292 499.275 187.082 502.457C186.872 505.639 187.474 508.822 188.832 511.707C190.2 514.518 192.126 517.021 194.492 519.064C196.859 521.106 199.617 522.646 202.597 523.588C208.501 525.385 214.797 525.446 220.736 523.765C225.192 522.7 229.349 520.638 232.895 517.736C236.523 514.773 239.015 510.647 239.948 506.057C240.846 500.9 239.405 495.654 238.33 490.522C234.968 474.305 235.929 473.458 240.176 458.404C240.277 458.139 240.328 457.86 240.403 457.595C240.479 457.33 240.517 457.203 240.568 457.001C240.688 456.406 240.752 455.801 240.757 455.193C240.137 455.424 239.464 455.473 238.817 455.334C238.17 455.195 237.576 454.875 237.104 454.41C236.632 453.914 236.303 453.3 236.152 452.632C236 451.965 236.033 451.269 236.245 450.618C236.543 449.906 236.987 449.265 237.549 448.736C238.111 448.207 238.778 447.801 239.506 447.546C240.909 446.965 242.413 446.661 243.791 446.017C246.711 444.626 248.733 441.744 250.111 438.724C251.244 436.63 251.593 434.201 251.097 431.873Z" fill="#0F0C39"/>
<path d="M240.694 454.233C240.961 454.627 241.182 455.052 241.351 455.497C241.73 456.293 242.236 457.418 242.792 458.72L242.893 458.96H242.628L241.364 459.074C240.492 459.074 239.759 459.238 238.899 459.226C238.824 459.209 238.755 459.173 238.697 459.122C238.64 459.072 238.596 459.007 238.57 458.935C238.533 458.82 238.533 458.696 238.57 458.581C238.6 458.411 238.638 458.242 238.684 458.075L238.912 457.178C239.026 456.579 239.204 455.994 239.443 455.434C239.419 456.044 239.33 456.65 239.177 457.241L239 458.139C238.937 458.442 238.823 458.91 239 458.872C239.632 458.872 240.53 458.733 241.364 458.682L242.628 458.568L242.464 458.846C241.92 457.582 241.465 456.394 241.2 455.573C240.967 455.153 240.796 454.702 240.694 454.233Z" fill="#741ADE"/>
<path d="M197.415 560.624L253.473 558.917L277.868 654.147L273.381 763.382H243.74L247.368 656.473L225.69 590.176L229.027 767.616L199.07 768.059L195.923 601.274C195.784 596.635 194.267 586.182 194.836 581.581L197.415 560.624Z" fill="#0F0C39"/>
<path d="M233.148 591.528C232.23 591.586 231.309 591.531 230.405 591.364C228.711 591.162 226.398 590.808 223.858 590.302C221.317 589.797 219.042 589.215 217.399 588.748C216.52 588.555 215.671 588.249 214.871 587.838C214.871 587.648 218.991 588.634 224.047 589.658C229.103 590.682 233.173 591.339 233.148 591.528Z" fill="#455A64"/>
<path d="M273.078 757.391C273.078 757.568 266.366 757.719 258.087 757.719C249.808 757.719 243.083 757.568 243.083 757.391C243.083 757.214 249.795 757.062 258.087 757.062C266.379 757.062 273.078 757.201 273.078 757.391Z" fill="#455A64"/>
<path d="M228.762 763.003C228.762 763.192 222.24 763.331 214.201 763.331C206.161 763.331 199.652 763.192 199.652 763.003C199.652 762.813 206.174 762.674 214.201 762.674C222.227 762.674 228.762 762.826 228.762 763.003Z" fill="#455A64"/>
<path d="M224.894 762.548C224.717 762.548 223.933 723.781 223.137 675.964C222.341 628.147 221.873 589.354 222.037 589.354C222.202 589.354 223.011 628.109 223.794 675.951C224.578 723.793 225.084 762.548 224.894 762.548Z" fill="#455A64"/>
<path d="M269.096 757.391C269.082 757.218 269.082 757.045 269.096 756.872V755.356C269.096 753.99 269.197 752.031 269.273 749.541C269.45 744.485 269.703 737.141 270.019 728.142C270.701 710.041 271.662 685.09 272.711 657.547C272.711 657.282 272.711 657.029 272.711 656.801V656.89C266.075 630.346 260.071 606.254 255.71 588.824L250.654 568.208C250.073 565.793 249.631 563.91 249.315 562.596C249.163 561.976 249.062 561.496 248.973 561.129C248.924 560.965 248.894 560.795 248.885 560.624C248.95 560.783 249.001 560.948 249.036 561.117C249.138 561.471 249.264 561.951 249.441 562.558C249.782 563.822 250.275 565.743 250.907 568.144C252.171 573.023 253.953 580.051 256.178 588.71C260.577 606.128 266.644 630.156 273.368 656.738V656.827C273.368 657.054 273.368 657.32 273.368 657.572C272.243 685.115 271.22 710.054 270.474 728.154C270.082 737.167 269.753 744.46 269.526 749.541C269.399 752.069 269.298 753.99 269.235 755.356C269.235 756 269.159 756.506 269.147 756.872C269.149 757.046 269.132 757.22 269.096 757.391Z" fill="#455A64"/>
<path d="M259.426 654.577C257.297 655.277 255.104 655.764 252.879 656.03C250.149 656.498 247.823 656.827 246.774 656.877V656.624C247.115 656.726 247.292 656.789 247.292 656.839C247.292 656.89 247.077 656.839 246.723 656.839H245.965L246.723 656.612C247.709 656.321 250.035 655.841 252.765 655.348C254.955 654.873 257.186 654.615 259.426 654.577Z" fill="#455A64"/>
<path d="M258.908 658.204C256.937 658.295 254.961 658.206 253.006 657.939C251.031 657.899 249.064 657.683 247.128 657.294C251.078 656.972 255.055 657.279 258.908 658.204Z" fill="#455A64"/>
<path opacity="0.2" d="M197.175 562.633C197.838 563.486 198.675 564.189 199.629 564.696C200.583 565.204 201.633 565.504 202.711 565.579C204.969 565.846 207.252 565.803 209.499 565.452C223.971 563.847 239.304 562.368 253.473 558.917C235.132 559.941 215.755 559.6 197.415 560.624L197.225 562.191" fill="black"/>
<g opacity="0.2">
<path d="M216.071 588.482L226.411 628.602L225.69 590.176L216.071 588.482Z" fill="black"/>
</g>
</svg>
